<svg width="145" height="62" viewBox="0 0 145 62" fill="none" xmlns="http://www.w3.org/2000/svg">
<path fill-rule="evenodd" clip-rule="evenodd" d="M31.2857 61.5198C48.5643 61.5198 62.5714 47.7481 62.5714 30.7599C62.5714 13.7717 48.5643 0 31.2857 0C14.0071 0 0 13.7717 0 30.7599C0 47.7481 14.0071 61.5198 31.2857 61.5198ZM14.6091 19.6188V42.2581H19.455V19.6188H28.6167V15.568H5.44738V19.6188H14.6091ZM28.2748 23.7454V42.2581H33.0828V32.3013C33.0828 29.4241 34.635 27.8341 37.7394 27.5312L40.4652 27.2662L40.1623 23.2532L38.7237 23.3668C35.7455 23.5939 33.8021 24.8054 32.8935 27.0012V23.7454H28.2748ZM45.4139 41.8795C46.474 42.3843 47.6728 42.6367 49.0105 42.6367C50.2977 42.6367 51.4082 42.3464 52.342 41.7659C53.2759 41.1602 53.9573 40.3399 54.3864 39.3051V42.2581H58.8158V31.052C58.8158 28.4272 58.1596 26.4964 56.8472 25.2597C55.5347 23.9977 53.5282 23.3668 50.8277 23.3668C49.9443 23.3668 48.9979 23.4677 47.9883 23.6696C47.004 23.8463 46.0575 24.1113 45.1489 24.4647C44.2656 24.7928 43.4958 25.184 42.8396 25.6383L44.2025 28.8562C45.313 28.2 46.4109 27.7205 47.4962 27.4176C48.5814 27.0895 49.6415 26.9255 50.6763 26.9255C51.9887 26.9255 52.9225 27.2031 53.4778 27.7583C54.033 28.3136 54.3107 29.2222 54.3107 30.4841V31.2792H52.9856C50.3103 31.2792 48.1776 31.4558 46.5876 31.8092C44.9975 32.1625 43.8491 32.743 43.1424 33.5507C42.4358 34.3331 42.0824 35.4057 42.0824 36.7686C42.0824 37.8791 42.3727 38.8761 42.9532 39.7594C43.5589 40.6428 44.3792 41.3495 45.4139 41.8795ZM53.0613 38.0937C52.2537 38.9518 51.2315 39.3809 49.9948 39.3809C48.96 39.3809 48.1524 39.1158 47.5719 38.5858C46.9914 38.0558 46.7011 37.3744 46.7011 36.5415C46.7011 35.5824 47.1554 34.9262 48.064 34.5728C48.9979 34.1943 50.651 34.005 53.0235 34.005H54.3107V34.8379C54.3107 36.1503 53.8942 37.2355 53.0613 38.0937ZM63.6191 23.7454V42.2581H68.3514V31.847C68.3514 30.4084 68.7552 29.2601 69.5628 28.4019C70.3957 27.5186 71.5062 27.0769 72.8944 27.0769C74.0301 27.0769 74.863 27.405 75.393 28.0612C75.9483 28.7174 76.2259 29.7648 76.2259 31.2035V42.2581H80.9582V30.9763C80.9582 25.9033 78.775 23.3668 74.4087 23.3668C73.071 23.3668 71.8596 23.6444 70.7743 24.1997C69.7143 24.7549 68.8688 25.5626 68.2378 26.6226V23.7454H63.6191ZM88.1498 42.0688C89.5127 42.4474 90.9766 42.6367 92.5414 42.6367C94.9391 42.6367 96.8572 42.1193 98.2958 41.0845C99.7344 40.0244 100.454 38.5732 100.454 36.7308C100.454 35.3679 100.025 34.2826 99.1666 33.475C98.3337 32.6673 97.097 32.1121 95.4565 31.8092L91.6706 31.0899C90.232 30.8375 89.5127 30.156 89.5127 29.0455C89.5127 28.3388 89.8029 27.771 90.3834 27.3419C90.9892 26.9128 91.9104 26.6983 93.1471 26.6983C94.0809 26.6983 95.0526 26.875 96.0622 27.2283C97.097 27.5817 97.9803 28.0612 98.7123 28.6669L99.9995 25.5626C99.1413 24.8306 98.1065 24.288 96.8951 23.9347C95.6836 23.5561 94.4217 23.3668 93.1092 23.3668C91.5697 23.3668 90.2068 23.6065 89.0205 24.0861C87.8343 24.5656 86.9005 25.2471 86.219 26.1304C85.5628 27.0138 85.2347 28.0612 85.2347 29.2727C85.2347 31.9985 86.8374 33.6642 90.0427 34.27L93.8285 34.9893C95.3934 35.2922 96.1758 35.9736 96.1758 37.0336C96.1758 37.7151 95.8729 38.2703 95.2672 38.6994C94.6867 39.1032 93.7907 39.3051 92.5792 39.3051C91.4182 39.3051 90.2572 39.1411 89.0963 38.813C87.9353 38.4596 86.8879 37.9675 85.954 37.3365L84.7425 40.4409C85.6511 41.1476 86.7869 41.6902 88.1498 42.0688ZM103.947 15.1515V19.7702H109.248V15.1515H103.947ZM104.25 23.7454V42.2581H108.983V23.7454H104.25ZM115.149 27.304V42.2581H119.881V27.304H124.916V24.2271L132.393 41.5009L128.986 49.0726H133.87L145 23.7454H140.23L134.93 36.6929L129.743 23.7454H124.916H124.708H119.881V22.9503C119.881 21.6884 120.197 20.7419 120.828 20.111C121.459 19.4547 122.531 19.0762 124.046 18.9752L125.787 18.8616L125.484 15.3787L123.629 15.4922C120.727 15.6689 118.581 16.4261 117.193 17.7637C115.83 19.1014 115.149 21.0827 115.149 23.7075V23.7454H111.59V27.304H115.149Z" fill="white"/>
</svg>
