<svg width="32" height="34" viewBox="0 0 32 34" fill="none" xmlns="http://www.w3.org/2000/svg">
<path d="M22.8702 21.3836L21.4248 21.3836L20.9125 20.8588C22.7675 18.5727 23.787 15.6542 23.785 12.6358C23.785 10.1367 23.0875 7.69367 21.7808 5.61573C20.474 3.53778 18.6166 1.91822 16.4436 0.961848C14.2705 0.0054748 11.8793 -0.244756 9.5724 0.242799C7.26548 0.730354 5.14644 1.9338 3.48324 3.70094C1.82004 5.46809 0.687392 7.71957 0.228517 10.1707C-0.230358 12.6218 0.00515276 15.1624 0.905269 17.4713C1.80538 19.7802 3.32968 21.7536 5.28539 23.1421C7.2411 24.5305 9.5404 25.2716 11.8925 25.2716C14.8382 25.2716 17.546 24.1246 19.6318 22.2196L20.1258 22.7639L20.1258 24.2996L29.2739 34L32 31.1035L22.8702 21.3836ZM11.8925 21.3836C7.33677 21.3836 3.65924 17.4763 3.65924 12.6358C3.65924 7.79532 7.33677 3.88794 11.8925 3.88794C16.4483 3.88794 20.1258 7.79532 20.1258 12.6358C20.1258 17.4763 16.4483 21.3836 11.8925 21.3836Z" fill="white" fill-opacity="0.5"/>
</svg>
