<svg width="1440" height="738" viewBox="0 0 1440 738" fill="none" xmlns="http://www.w3.org/2000/svg">
<g clip-path="url(#clip0_3_426)">
<path d="M1492.06 784.813C1538.2 416.649 1242.69 440.238 798.032 704.694C414.216 932.904 313.397 638.046 277.103 403.027C240.808 168.007 86.8479 140.566 -320.156 238.284" stroke="url(#paint0_linear_3_426)" stroke-opacity="0.5" stroke-width="3.4" stroke-miterlimit="10"/>
<path d="M1435.24 802.165C1493.56 428.614 1228.15 424.816 796.229 686.066C407.828 921.004 293.583 665.767 257.28 430.682C220.977 195.596 67.0334 168.287 -339.982 265.916" stroke="url(#paint1_linear_3_426)" stroke-opacity="0.3" stroke-width="3.26" stroke-miterlimit="10"/>
<path d="M1378.42 819.518C1449.11 440.533 1213.75 409.511 794.387 667.442C401.373 909.179 273.882 693.473 237.474 458.468C201.065 223.463 47.2218 196.029 -359.782 293.747" stroke="url(#paint2_linear_3_426)" stroke-opacity="0.3" stroke-width="3.11" stroke-miterlimit="10"/>
<path d="M1321.6 836.871C1404.67 452.452 1199.55 394.314 792.584 648.815C395.005 897.433 253.992 721.203 217.546 486.203C181.099 251.202 27.2936 223.764 -379.711 321.481" stroke="url(#paint3_linear_3_426)" stroke-opacity="0.3" stroke-width="2.97" stroke-miterlimit="10"/>
<path d="M1264.79 854.246C1360.23 464.415 1185.49 379.256 790.743 630.192C388.726 885.786 234.177 748.924 197.847 513.931C161.518 278.938 7.5925 251.47 -399.415 349.166" stroke="url(#paint4_linear_3_426)" stroke-opacity="0.3" stroke-width="2.83" stroke-miterlimit="10"/>
<path d="M1207.97 871.598C1315.77 476.312 1171.63 364.262 788.939 611.564C382.605 874.164 214.365 776.666 178.033 541.651C141.701 306.637 -12.2218 279.191 -419.188 376.903" stroke="url(#paint5_linear_3_426)" stroke-opacity="0.3" stroke-width="2.69" stroke-miterlimit="10"/>
<path d="M1151.15 888.951C1271.33 488.274 1157.89 349.385 787.098 592.94C376.573 862.643 194.551 804.386 158.218 569.372C121.886 334.357 -32.0362 306.911 -439.003 404.624" stroke="url(#paint6_linear_3_426)" stroke-opacity="0.3" stroke-width="2.55" stroke-miterlimit="10"/>
<path d="M1094.33 906.304C1226.88 500.171 1144.32 334.577 785.295 574.313C370.665 851.195 174.547 832.131 138.404 597.092C102.261 362.054 -51.851 334.632 -458.809 432.41" stroke="url(#paint7_linear_3_426)" stroke-opacity="0.5" stroke-width="2.41" stroke-miterlimit="10"/>
<path d="M1037.51 923.679C1182.44 512.09 1131.03 319.823 783.456 555.711C364.734 839.861 154.925 859.849 118.589 624.813C82.2541 389.776 -71.6627 362.374 -478.629 460.087" stroke="url(#paint8_linear_3_426)" stroke-opacity="0.3" stroke-width="2.26" stroke-miterlimit="10"/>
<path d="M980.688 941.031C1137.99 524.031 1117.6 305.198 781.664 537.171C359.37 828.746 135.119 887.636 98.7862 652.621C62.4537 417.606 -91.4769 390.094 -498.443 487.807" stroke="url(#paint9_linear_3_426)" stroke-opacity="0.3" stroke-width="2.12" stroke-miterlimit="10"/>
<path d="M923.863 958.34C1093.53 535.84 1104.43 290.562 779.958 518.397C353.969 817.346 115.445 915.249 78.9634 680.276C42.482 445.302 -111.291 417.815 -518.258 515.528" stroke="url(#paint10_linear_3_426)" stroke-opacity="0.3" stroke-width="1.98" stroke-miterlimit="10"/>
<path d="M867.048 975.737C1049.1 547.869 1091.44 276.06 777.997 499.745C348.75 806.168 95.4702 942.923 59.1377 707.908C22.8052 472.894 -131.117 445.448 -538.083 543.16" stroke="url(#paint11_linear_3_426)" stroke-opacity="0.3" stroke-width="1.84" stroke-miterlimit="10"/>
<path d="M810.231 993.111C1004.65 559.81 1078.57 261.588 776.167 481.209C343.833 795.241 75.6667 970.731 39.3343 735.717C3.00181 500.702 -150.921 473.256 -557.887 570.969" stroke="url(#paint12_linear_3_426)" stroke-opacity="0.3" stroke-width="1.7" stroke-miterlimit="10"/>
<path d="M753.411 1010.46C960.129 571.738 1065.66 247.164 774.364 462.581C339.109 784.313 55.847 998.408 19.3305 763.461C-17.186 528.514 -170.74 500.932 -577.698 598.711" stroke="url(#paint13_linear_3_426)" stroke-opacity="0.3" stroke-width="1.56" stroke-miterlimit="10"/>
<path d="M696.591 1027.82C915.76 583.67 1053.18 232.754 772.522 443.958C334.668 773.505 36.038 1026.17 -0.294435 791.157C-36.6269 556.143 -190.546 528.719 -597.513 626.431" stroke="url(#paint14_linear_3_426)" stroke-opacity="0.3" stroke-width="1.42" stroke-miterlimit="10"/>
<path d="M639.771 1045.17C871.313 595.589 1040.7 218.366 770.719 425.331C330.51 762.796 16.2234 1053.89 -20.098 818.966C-56.4194 584.039 -210.361 556.439 -617.327 654.152" stroke="url(#paint15_linear_3_426)" stroke-opacity="0.3" stroke-width="1.27" stroke-miterlimit="10"/>
<path d="M582.954 1062.54C826.865 607.507 1028.27 204.038 768.878 406.707C326.71 752.175 -3.58553 1081.66 -39.9208 846.62C-76.256 611.584 -230.173 584.182 -637.142 681.872" stroke="url(#paint16_linear_3_426)" stroke-opacity="0.3" stroke-width="1.13" stroke-miterlimit="10"/>
</g>
<defs>
<linearGradient id="paint0_linear_3_426" x1="317.346" y1="37.742" x2="629.943" y2="1052.15" gradientUnits="userSpaceOnUse">
<stop stop-color="#000E28"/>
<stop offset="0.52" stop-color="#5D88FF" stop-opacity="0.38"/>
<stop offset="1" stop-color="#5683FF"/>
</linearGradient>
<linearGradient id="paint1_linear_3_426" x1="293.292" y1="66.9464" x2="599.709" y2="1061.3" gradientUnits="userSpaceOnUse">
<stop stop-color="#000E28"/>
<stop offset="0.52" stop-color="#386DFF" stop-opacity="0.82"/>
<stop offset="1" stop-color="#5683FF"/>
</linearGradient>
<linearGradient id="paint2_linear_3_426" x1="270.302" y1="95.8228" x2="570.539" y2="1070.13" gradientUnits="userSpaceOnUse">
<stop stop-color="#04111D"/>
<stop offset="0.52" stop-color="#7C9FFF"/>
<stop offset="1" stop-color="#5683FF"/>
</linearGradient>
<linearGradient id="paint3_linear_3_426" x1="248.433" y1="124.33" x2="542.497" y2="1078.6" gradientUnits="userSpaceOnUse">
<stop stop-color="#122C59"/>
<stop offset="0.52" stop-color="#386DFF" stop-opacity="0.82"/>
<stop offset="1" stop-color="#5683FF"/>
</linearGradient>
<linearGradient id="paint4_linear_3_426" x1="227.82" y1="152.474" x2="515.698" y2="1086.67" gradientUnits="userSpaceOnUse">
<stop stop-color="#122C59"/>
<stop offset="0.52" stop-color="#7C9FFF"/>
<stop offset="1" stop-color="#5682FF"/>
</linearGradient>
<linearGradient id="paint5_linear_3_426" x1="208.52" y1="180.213" x2="490.218" y2="1094.35" gradientUnits="userSpaceOnUse">
<stop stop-color="#122C59"/>
<stop offset="0.52" stop-color="#386DFF" stop-opacity="0.82"/>
<stop offset="1" stop-color="#5F89FF"/>
</linearGradient>
<linearGradient id="paint6_linear_3_426" x1="190.603" y1="207.526" x2="466.108" y2="1101.57" gradientUnits="userSpaceOnUse">
<stop stop-color="#122C59"/>
<stop offset="0.52" stop-color="#7C9FFF"/>
<stop offset="1" stop-color="#5682FF"/>
</linearGradient>
<linearGradient id="paint7_linear_3_426" x1="174.092" y1="234.382" x2="443.417" y2="1108.37" gradientUnits="userSpaceOnUse">
<stop stop-color="#122C59"/>
<stop offset="0.52" stop-color="#5D88FF" stop-opacity="0.38"/>
<stop offset="1" stop-color="#5F89FF"/>
</linearGradient>
<linearGradient id="paint8_linear_3_426" x1="158.943" y1="260.842" x2="422.075" y2="1114.73" gradientUnits="userSpaceOnUse">
<stop stop-color="#000D26"/>
<stop offset="0.52" stop-color="#5683FF"/>
<stop offset="1" stop-color="#FF089B" stop-opacity="0"/>
</linearGradient>
<linearGradient id="paint9_linear_3_426" x1="145.178" y1="286.876" x2="402.116" y2="1120.67" gradientUnits="userSpaceOnUse">
<stop stop-color="#122C59"/>
<stop offset="0.52" stop-color="#5D88FF" stop-opacity="0.38"/>
<stop offset="1" stop-color="#5682FF"/>
</linearGradient>
<linearGradient id="paint10_linear_3_426" x1="132.76" y1="312.494" x2="383.505" y2="1126.19" gradientUnits="userSpaceOnUse">
<stop stop-color="#122C59"/>
<stop offset="0.52" stop-color="#386DFF" stop-opacity="0.82"/>
<stop offset="1" stop-color="#5F89FF"/>
</linearGradient>
<linearGradient id="paint11_linear_3_426" x1="121.535" y1="337.721" x2="366.094" y2="1131.34" gradientUnits="userSpaceOnUse">
<stop stop-color="#122C59"/>
<stop offset="0.52" stop-color="#5682FF"/>
<stop offset="1" stop-color="#5F89FF"/>
</linearGradient>
<linearGradient id="paint12_linear_3_426" x1="111.495" y1="362.607" x2="349.854" y2="1136.11" gradientUnits="userSpaceOnUse">
<stop stop-color="#122C59"/>
<stop offset="0.52" stop-color="#5682FF"/>
<stop offset="1" stop-color="#5F89FF"/>
</linearGradient>
<linearGradient id="paint13_linear_3_426" x1="102.52" y1="387.165" x2="334.678" y2="1140.55" gradientUnits="userSpaceOnUse">
<stop stop-color="#122C59"/>
<stop offset="0.52" stop-color="#5682FF"/>
<stop offset="1" stop-color="#5F89FF"/>
</linearGradient>
<linearGradient id="paint14_linear_3_426" x1="94.5372" y1="411.416" x2="320.496" y2="1144.68" gradientUnits="userSpaceOnUse">
<stop stop-color="#122C59"/>
<stop offset="0.52" stop-color="#5682FF"/>
<stop offset="1" stop-color="#5F89FF"/>
</linearGradient>
<linearGradient id="paint15_linear_3_426" x1="87.3925" y1="435.386" x2="307.158" y2="1148.55" gradientUnits="userSpaceOnUse">
<stop stop-color="#122C59"/>
<stop offset="0.52" stop-color="#5682FF"/>
<stop offset="1" stop-color="#5F89FF"/>
</linearGradient>
<linearGradient id="paint16_linear_3_426" x1="81.1131" y1="459.113" x2="294.679" y2="1152.16" gradientUnits="userSpaceOnUse">
<stop stop-color="#3908FF" stop-opacity="0"/>
<stop offset="0.52" stop-color="#DC08FF"/>
<stop offset="1" stop-color="#5708FF" stop-opacity="0"/>
</linearGradient>
<clipPath id="clip0_3_426">
<rect width="950.691" height="2123.18" fill="white" transform="translate(1416.59) rotate(82.8324)"/>
</clipPath>
</defs>
</svg>
